<?xml version="1.0" encoding="UTF-8"?>
<!DOCTYPE svg PUBLIC "-//W3C//DTD SVG 1.1//EN" "http://www.w3.org/Graphics/SVG/1.1/DTD/svg11.dtd">
<!-- Creator: CorelDRAW X7 -->
<svg xmlns="http://www.w3.org/2000/svg" xml:space="preserve" width="644.533mm" height="644.533mm" version="1.1" style="shape-rendering:geometricPrecision; text-rendering:geometricPrecision; image-rendering:optimizeQuality; fill-rule:evenodd; clip-rule:evenodd"
viewBox="0 0 64453 64453"
 xmlns:xlink="http://www.w3.org/1999/xlink">
 <defs>
  <style type="text/css">
   <![CDATA[
    .fil0 {fill:none}
    .fil3 {fill:#ED2E60;fill-rule:nonzero}
    .fil2 {fill:black;fill-rule:nonzero}
    .fil4 {fill:#DB913D;fill-rule:nonzero}
    .fil1 {fill:#E62256;fill-rule:nonzero}
   ]]>
  </style>
 </defs>
 <g id="Layer_x0020_1">
  <metadata id="CorelCorpID_0Corel-Layer"/>
  <rect class="fil0" width="64453" height="64453"/>
  <path class="fil1" d="M5788 41872l-1405 0 0 4081 1405 0c757,0 1379,-622 1379,-1379l0 -1297c0,-783 -622,-1405 -1379,-1405zm1379 -4405c0,-783 -622,-1405 -1379,-1405l-1405 0 0 4081 1405 0c757,0 1379,-622 1379,-1379l0 -1297zm1729 1297c0,892 -351,1676 -973,2243 622,568 973,1379 973,2270l0 1297c0,1730 -1406,3136 -3108,3136l-2270 0c-486,0 -864,-406 -864,-865l0 -11648c0,-485 378,-863 864,-863l2270 0c1702,0 3108,1405 3108,3133l0 1297z"/>
  <path class="fil1" d="M12868 36062l0 4081 2351 0c243,0 432,189 432,432l0 865c0,243 -189,432 -432,432l-2351 0 0 4107 2351 0c243,0 432,189 432,434l0 863c0,245 -189,434 -432,434l-3216 0c-486,0 -865,-406 -865,-865l0 -11648c0,-485 379,-863 865,-863l3216 0c243,0 432,189 432,431l0 865c0,243 -189,432 -432,432l-2351 0z"/>
  <path class="fil1" d="M22379 46413l0 863c0,217 -189,434 -432,434l-3189 0c-486,0 -864,-406 -864,-865l0 -12081c0,-241 188,-430 432,-430l864 0c216,0 433,189 433,430l0 11215 2324 0c243,0 432,189 432,434z"/>
  <path class="fil1" d="M28836 38386l0 -919c0,-783 -620,-1378 -1377,-1378 -757,0 -1378,595 -1378,1378l0 7162c0,757 621,1378 1378,1378 757,0 1377,-621 1377,-1378l0 -2784 -945 0c-243,0 -432,-189 -432,-405l0 -865c0,-243 189,-432 432,-432l2243 0c243,0 432,189 432,432l0 4054c0,1702 -1405,3081 -3107,3081 -1703,0 -3108,-1379 -3108,-3081l0 -7162c0,-1729 1405,-3107 3108,-3107 1702,0 3107,1378 3107,3107l0 919c0,244 -189,433 -432,433l-865 0c-243,0 -433,-189 -433,-433z"/>
  <path class="fil1" d="M48802 34764l0 9810c0,1730 -1404,3136 -3107,3136 -1730,0 -3135,-1406 -3135,-3136l0 -9810c0,-241 216,-430 433,-430l864 0c243,0 433,189 433,430l0 9810c0,784 621,1405 1405,1405 756,0 1378,-621 1378,-1405l0 -9810c0,-241 189,-430 432,-430l865 0c244,0 432,189 432,430z"/>
  <path class="fil1" d="M61800 37441l0 9835c0,217 -190,434 -433,434l-865 0c-243,0 -432,-217 -432,-434l0 -9835c0,-757 -622,-1379 -1405,-1379 -757,0 -1378,622 -1378,1379l0 9835c0,217 -189,434 -433,434l-864 0c-244,0 -433,-217 -433,-434l0 -9835c0,-757 -622,-1379 -1378,-1379 -784,0 -1405,622 -1405,1379l0 9835c0,217 -190,434 -433,434l-865 0c-216,0 -432,-217 -432,-434l0 -9835c0,-1703 1406,-3107 3135,-3107 865,0 1675,378 2243,972 567,-594 1378,-972 2243,-972 1729,0 3135,1404 3135,3107z"/>
  <path class="fil2" d="M14834 51180l0 1795c0,139 -44,266 -122,370l-347 556c-19,23 -51,46 -90,46l-360 0c-38,0 -70,-23 -90,-46l-263 -428 -270 428c-19,23 -51,46 -90,46l-360 0c-32,0 -71,-23 -83,-46l-354 -556c-77,-104 -122,-231 -122,-370l0 -1795c0,-51 45,-92 103,-92l206 0c58,0 102,41 102,92l0 1795c0,35 7,64 20,98l308 492 315 -492c13,-34 19,-63 19,-98l0 -1795c0,-51 46,-92 103,-92l206 0c51,0 103,41 103,92l0 1795c0,35 6,64 12,98l315 492 309 -492c13,-34 19,-63 19,-98l0 -1795c0,-51 45,-92 103,-92l206 0c58,0 102,41 102,92z"/>
  <path class="fil2" d="M17082 51754c0,-163 -147,-295 -328,-295 -186,0 -334,132 -334,295l0 578 662 0 0 -578zm412 0l0 2101c0,52 -45,93 -103,93l-206 0c-58,0 -103,-41 -103,-93l0 -1152 -662 0 0 1152c0,52 -45,93 -103,93l-205 0c-58,0 -103,-41 -103,-93l0 -2101c0,-365 334,-666 745,-666 406,0 740,301 740,666z"/>
  <path class="fil2" d="M19080 51452l0 875 559 0c58,0 103,40 103,92l0 185c0,52 -45,93 -103,93l-559 0 0 1158c0,52 -45,93 -103,93l-205 0c-58,0 -104,-41 -104,-93l0 -2588c0,-104 91,-185 206,-185l765 0c58,0 103,41 103,93l0 185c0,52 -45,92 -103,92l-559 0z"/>
  <path class="fil2" d="M21329 51452l0 875 559 0c57,0 102,40 102,92l0 185c0,52 -45,93 -102,93l-559 0 0 1158c0,52 -46,93 -104,93l-205 0c-58,0 -103,-41 -103,-93l0 -2588c0,-104 90,-185 205,-185l766 0c57,0 102,41 102,93l0 185c0,52 -45,92 -102,92l-559 0z"/>
  <path class="fil2" d="M23577 51452l0 875 559 0c58,0 102,40 102,92l0 185c0,52 -44,93 -102,93l-559 0 0 880 559 0c58,0 102,40 102,92l0 186c0,52 -44,93 -102,93l-765 0c-116,0 -205,-87 -205,-186l0 -2495c0,-104 89,-185 205,-185l765 0c58,0 102,41 102,93l0 185c0,52 -44,92 -102,92l-559 0z"/>
  <path class="fil2" d="M26480 53669l0 186c0,46 -44,93 -102,93l-759 0c-115,0 -205,-87 -205,-186l0 -2587c0,-52 45,-93 103,-93l205 0c51,0 103,41 103,93l0 2402 553 0c58,0 102,40 102,92z"/>
  <path class="fil2" d="M28401 51945l0 -198c0,-161 -148,-295 -327,-295 -180,0 -328,134 -328,295 0,76 0,76 19,99l893 1065c155,185 155,185 155,370 0,365 -335,667 -739,667 -405,0 -739,-302 -739,-667l0 -196c0,-52 44,-93 102,-93l205 0c59,0 104,41 104,93l0 196c0,163 148,296 328,296 179,0 327,-133 327,-296 0,-74 0,-74 -19,-97l-893 -1066c-154,-185 -154,-185 -154,-371 0,-364 334,-665 739,-665 404,0 739,301 739,665l0 198c0,52 -45,92 -103,92l-206 0c-58,0 -103,-40 -103,-92z"/>
  <path class="fil1" d="M34291 52318c0,52 -44,93 -102,93l-328 0 0 1447c0,52 -51,92 -103,92l-642 0c-405,0 -739,-301 -739,-671l0 -568c0,-191 84,-364 231,-486 -147,-121 -231,-289 -231,-480 0,-370 334,-671 739,-671l218 0c58,0 104,46 104,92l0 191c0,46 -46,93 -104,93l-218 0c-180,0 -328,133 -328,295 0,162 148,295 328,295l334 0 0 -295c0,-53 45,-93 103,-93l205 0c52,0 103,40 103,93l0 295 328 0c58,0 102,47 102,92l0 186zm4702 -21015l-1430 7454c-147,769 -874,1263 -1617,1122 -770,-147 -1263,-875 -1116,-1644l1604 -9211c46,-238 -105,-459 -345,-505l-849 -163c-238,-45 -460,106 -505,343l-1605 9211c-268,1406 76,2753 1306,3373l-3219 11642c-552,2588 3404,2927 3686,610l1955 -11928c1345,-128 2135,-1119 2404,-2526l1668 -8934c45,-238 -1892,918 -1937,1156z"/>
  <path class="fil3" d="M32788 52712l0 567c0,168 148,301 328,301l334 0 0 -1169 -334 0c-180,0 -328,138 -328,301z"/>
  <path class="fil2" d="M40128 51750l0 2108c0,46 -45,92 -103,92l-205 0c-58,0 -103,-46 -103,-92l0 -2108c0,-161 -148,-295 -335,-295 -179,0 -327,134 -327,295l0 2108c0,46 -45,92 -103,92l-205 0c-58,0 -103,-46 -103,-92l0 -2108c0,-161 -149,-295 -328,-295 -187,0 -334,134 -334,295l0 2108c0,46 -46,92 -103,92l-206 0c-51,0 -103,-46 -103,-92l0 -2108c0,-364 334,-665 746,-665 206,0 398,81 533,208 135,-127 328,-208 533,-208 412,0 746,301 746,665z"/>
  <path class="fil2" d="M42376 51750c0,-161 -148,-295 -329,-295 -185,0 -333,134 -333,295l0 1529c0,168 148,301 333,301 181,0 329,-133 329,-301l0 -1529zm411 0l0 1529c0,370 -334,671 -740,671 -410,0 -744,-301 -744,-671l0 -1529c0,-364 334,-665 744,-665 406,0 740,301 740,665z"/>
  <path class="fil2" d="M44901 51750c0,-161 -148,-295 -328,-295l-328 0 0 874 328 0c180,0 328,-133 328,-300l0 -279zm411 279c0,190 -83,364 -225,486 142,121 225,289 225,480l0 863c0,46 -45,92 -103,92l-205 0c-58,0 -103,-46 -103,-92l0 -863c0,-162 -148,-295 -328,-295l-328 0 0 1158c0,46 -52,92 -102,92l-206 0c-58,0 -103,-46 -103,-92l0 -2588c0,-104 89,-185 206,-185l533 0c411,0 739,301 739,665l0 279z"/>
  <path class="fil2" d="M46898 51455l0 874 559 0c58,0 103,41 103,93l0 185c0,52 -45,93 -103,93l-559 0 0 880 559 0c58,0 103,40 103,92l0 186c0,52 -45,92 -103,92l-765 0c-115,0 -205,-87 -205,-185l0 -2495c0,-104 90,-185 205,-185l765 0c58,0 103,40 103,93l0 185c0,52 -45,92 -103,92l-559 0z"/>
  <path class="fil4" d="M50982 26151c-108,166 -397,39 -580,103 -160,55 -309,159 -442,267 -492,400 -979,806 -1462,1217 -280,240 -454,849 -841,763 -559,-122 -554,-1025 -546,-1650 2,-127 -85,-257 -142,-381 -210,-456 -12,-930 453,-1084 275,-91 546,-193 819,-288 385,-133 771,-265 1156,-398 412,-143 669,150 946,352 366,267 880,726 639,1099zm-5214 -2041c-210,-505 -375,-1027 -571,-1538 -79,-206 -174,-407 -284,-598 -225,-394 -207,-567 130,-874 344,-315 736,-539 1193,-661 592,-159 1176,-351 1767,-514 191,-52 396,-54 593,-79 2,8 257,52 468,136 124,47 233,110 265,195 239,632 428,1284 686,1907 334,806 53,1152 -587,1552 -236,147 -507,241 -766,349 -553,231 -1114,441 -1659,686 -673,302 -1027,-61 -1235,-561zm-415 5737c-387,-30 -782,-50 -1166,-5 -736,87 -1465,223 -2198,334 -207,31 -779,-56 -883,-286 -184,-401 -372,-800 -550,-1203 -164,-372 -121,-488 254,-626 539,-198 1087,-373 1626,-572 308,-112 606,-250 909,-377 34,-15 669,-580 1222,-567 1280,31 1205,2191 1262,3184 12,209 -322,129 -476,118zm-5741 -2686c-418,139 -562,59 -751,-338 -375,-790 -659,-1607 -835,-2464 -36,-175 -142,-336 -218,-502 -158,-346 -86,-621 261,-775 295,-131 616,-201 926,-298 664,-205 1322,-438 1995,-606 528,-132 835,-271 1372,-372 144,-27 506,-174 705,-114 316,94 380,569 534,884 311,632 590,1279 886,1918 45,99 102,193 154,289 142,264 27,579 -253,683 -892,328 -1781,661 -2676,979 -696,249 -1398,481 -2100,716zm-253 3421c-580,1005 -3326,262 -2987,-902 65,-226 425,-132 629,-169 493,-87 989,-171 1486,-227 104,-11 276,80 327,172 194,348 772,732 545,1126zm-4794 -2214c-124,24 -280,197 -392,97 -741,-664 -175,-1811 -639,-2598 -27,-48 -67,-91 -82,-143 -99,-351 -96,-761 218,-900 452,-200 915,-373 1371,-567 116,-49 215,-141 330,-196 503,-238 1022,-176 1120,489 130,889 521,1673 859,2486 205,491 120,822 -498,899 -768,94 -1525,282 -2287,433zm-2176 -5093c-96,22 -201,3 -364,3 -20,-256 -55,-487 -51,-717 5,-374 24,-748 60,-1121 19,-192 100,-379 135,-572 91,-504 -474,-606 -443,-1343 10,-222 348,-132 487,-185 751,-285 1475,-651 2300,-691 170,-8 263,35 354,187 340,567 437,1203 547,1834 73,411 102,830 183,1239 39,198 -60,286 -181,385 -435,353 -966,470 -1488,606 -512,134 -1025,257 -1539,375zm1970 -8080c151,65 55,307 63,452 18,351 34,702 29,1053 -1,73 -78,184 -148,212 -257,105 -575,474 -829,282 -648,-491 105,-2335 885,-1999zm1430 -1060c193,-636 1960,-610 2254,-779 108,-62 192,-203 238,-327 94,-247 127,-520 235,-758 8,-17 21,-30 38,-41 128,-84 493,-67 532,33 509,399 851,1340 1002,1828 24,68 43,138 62,209 7,25 13,46 17,61 3,11 6,23 9,33 13,41 -48,130 -97,161 -178,113 -363,214 -549,313 -933,499 -1913,828 -2983,854 -330,7 -544,-98 -608,-410 -79,-379 -269,-783 -150,-1177zm4757 2066c337,-7 505,175 618,519 243,729 509,1450 760,2176 72,206 148,414 183,628 36,208 -18,412 -228,519 -377,193 -758,378 -1141,560 -244,117 -489,235 -743,330 -274,103 -556,180 -837,265 -298,91 -593,193 -896,259 -289,64 -592,183 -878,2 -109,-69 -233,-169 -274,-282 -203,-568 -376,-1146 -566,-1718 -72,-215 -166,-423 -245,-637 -86,-238 -166,-480 -249,-721 40,-227 107,-373 326,-463 563,-228 1111,-497 1678,-717 587,-228 1186,-431 1787,-620 224,-70 469,-94 705,-100zm180 -3899c233,-339 753,-18 1092,5 425,29 843,17 1172,-280 131,-118 194,-323 257,-500 124,-347 475,-633 760,-549 156,45 316,154 423,278 426,489 833,992 1243,1493 183,223 105,420 -210,485 -622,129 -1253,220 -1873,362 -614,142 -1219,325 -1826,495 -234,65 -358,-74 -432,-249 -200,-480 -952,-1032 -606,-1540zm5909 2049c197,-60 316,255 382,361 457,743 908,1491 1361,2237 171,283 344,567 515,851 207,346 161,543 -204,683 -311,120 -643,185 -960,290 -400,133 -787,303 -1191,421 -747,219 -1495,441 -2255,604 -421,91 -777,-27 -1049,-467 -317,-507 -426,-1064 -597,-1611 -167,-535 -336,-1070 -500,-1606 -86,-279 -31,-414 245,-513 439,-158 883,-299 1328,-435 579,-178 1157,-354 1741,-511 75,-20 153,-29 230,-41 489,-134 889,-243 954,-263zm6415 4394c217,-430 189,-749 -133,-1109 -432,-482 -979,-774 -1612,-873 -309,-48 -492,-186 -634,-450 -271,-501 -535,-1002 -906,-1446 -329,-396 -608,-844 -805,-1321 -106,-255 -308,-608 16,-838 305,-217 436,-505 541,-829 73,-223 13,-381 -240,-413 -130,-16 -244,-63 -362,-113 -517,-219 -1052,-290 -1614,-232 -291,30 -590,-19 -884,-39 -129,-9 -214,-88 -261,-205 -171,-429 -512,-679 -898,-898 -335,-189 -721,-255 -1046,-447 -630,-371 -1085,-92 -1335,578 -179,477 -575,778 -1083,787 -506,9 -1012,24 -1516,58 -274,19 -552,-11 -766,-149 -475,-307 -944,-451 -1518,-314 -268,64 -447,163 -567,390 -89,168 -163,344 -169,540 -14,478 -208,796 -718,888 -181,32 -356,136 -517,236 -298,188 -615,342 -950,433 -317,86 -644,142 -944,-129 -202,-182 -476,-279 -755,-302 -545,-44 -1185,625 -1225,1257 -27,430 43,844 149,1257 72,283 47,551 -154,777 -225,253 -462,479 -790,617 -336,142 -684,214 -1031,305 -1002,262 -1413,916 -1258,1944 43,285 175,420 435,551 628,317 865,447 690,1260 -191,885 -342,1793 -206,2668 94,610 -60,939 -509,1239 -42,28 -79,76 -99,123 -113,253 -251,522 -29,772 306,345 661,633 1153,651 579,21 1116,99 1308,770 3,10 13,17 19,26 320,555 526,1156 646,1779 72,371 55,748 -188,1094 -141,202 -246,466 -113,720 279,535 1289,1060 1907,576 268,-209 592,-158 849,54 203,167 416,322 614,488 740,616 1608,645 2492,598 256,-14 453,42 640,198 236,197 471,395 715,581 181,139 425,278 616,160 387,-238 904,-357 1007,-920 66,-361 314,-503 663,-506 565,-4 1103,-171 1653,-270 435,-78 872,-154 1312,-187 684,-51 1244,281 1778,656 243,171 486,216 741,62 461,-279 706,-743 946,-1198 134,-255 172,-539 88,-833 -34,-119 -41,-278 78,-354 330,-212 572,-524 888,-757 542,-398 1081,-807 1550,-1295 254,-264 545,-409 928,-399 249,7 461,166 648,133 359,14 525,-162 585,-416 168,-705 230,-1408 -290,-2013 -255,-297 -211,-587 -67,-912 405,-911 481,-1850 178,-2806 -149,-473 -250,-940 -26,-1418 130,-277 246,-562 385,-835z"/>
 </g>
</svg>
